<svg width="32" height="32" viewBox="0 0 32 32" fill="none" xmlns="http://www.w3.org/2000/svg">
<rect width="32" height="32" fill="#111112"/>
<path fill-rule="evenodd" clip-rule="evenodd" d="M12.4823 7.51811C13.3925 7.47669 13.6834 7.46655 16.0009 7.46655H15.9983C18.3165 7.46655 18.6063 7.47669 19.5165 7.51811C20.425 7.55971 21.0454 7.70353 21.5894 7.91456C22.1512 8.13234 22.6259 8.4239 23.1006 8.89857C23.5752 9.37288 23.8668 9.84898 24.0855 10.4102C24.2952 10.9528 24.4392 11.5729 24.4819 12.4814C24.5228 13.3916 24.5335 13.6824 24.5335 16C24.5335 18.3175 24.5228 18.6076 24.4819 19.5179C24.4392 20.426 24.2952 21.0462 24.0855 21.589C23.8668 22.1501 23.5752 22.6262 23.1006 23.1005C22.6264 23.5752 22.151 23.8674 21.59 24.0854C21.047 24.2964 20.4262 24.4402 19.5178 24.4818C18.6075 24.5233 18.3176 24.5334 15.9999 24.5334C13.6825 24.5334 13.3918 24.5233 12.4816 24.4818C11.5733 24.4402 10.9531 24.2964 10.4101 24.0854C9.84922 23.8674 9.37313 23.5752 8.89899 23.1005C8.4245 22.6262 8.13294 22.1501 7.9148 21.5888C7.70395 21.0462 7.56013 20.4262 7.51835 19.5177C7.47711 18.6075 7.4668 18.3175 7.4668 16C7.4668 13.6824 7.47746 13.3914 7.51818 12.4812C7.55906 11.5731 7.70307 10.9528 7.91462 10.41C8.13329 9.84898 8.42485 9.37288 8.89952 8.89857C9.37384 8.42407 9.84993 8.13252 10.4112 7.91456C10.9538 7.70353 11.5739 7.55971 12.4823 7.51811ZM15.2354 9.00435C15.3841 9.00411 15.544 9.00419 15.7165 9.00426L16.0009 9.00435C18.2794 9.00435 18.5494 9.01252 19.4491 9.05341C20.2812 9.09146 20.7327 9.23048 21.0335 9.34728C21.4317 9.50195 21.7157 9.68684 22.0142 9.98551C22.3128 10.2842 22.4977 10.5686 22.6527 10.9669C22.7695 11.2673 22.9087 11.7189 22.9466 12.5509C22.9875 13.4504 22.9964 13.7207 22.9964 15.998C22.9964 18.2754 22.9875 18.5456 22.9466 19.4452C22.9086 20.2772 22.7695 20.7287 22.6527 21.0292C22.4981 21.4274 22.3128 21.711 22.0142 22.0095C21.7155 22.3081 21.4319 22.493 21.0335 22.6477C20.7331 22.765 20.2812 22.9037 19.4491 22.9417C18.5496 22.9826 18.2794 22.9915 16.0009 22.9915C13.7223 22.9915 13.4523 22.9826 12.5527 22.9417C11.7207 22.9033 11.2691 22.7643 10.9682 22.6475C10.5699 22.4928 10.2855 22.308 9.98682 22.0093C9.68815 21.7106 9.50326 21.4269 9.34824 21.0285C9.23144 20.728 9.09224 20.2765 9.05437 19.4445C9.01348 18.5449 9.0053 18.2747 9.0053 15.9959C9.0053 13.7171 9.01348 13.4483 9.05437 12.5487C9.09241 11.7167 9.23144 11.2652 9.34824 10.9644C9.50291 10.5661 9.68815 10.2817 9.98682 9.98302C10.2855 9.68435 10.5699 9.49946 10.9682 9.34444C11.269 9.2271 11.7207 9.08844 12.5527 9.05021C13.3399 9.01466 13.645 9.00399 15.2354 9.00221V9.00435ZM19.532 11.4449C19.532 10.8794 19.9907 10.4212 20.556 10.4212C21.1213 10.4212 21.58 10.8796 21.58 11.4449C21.58 12.0102 21.1213 12.4689 20.556 12.4689C19.9907 12.4689 19.532 12.0102 19.532 11.4449ZM11.6187 16C11.6187 13.5799 13.5808 11.6177 16.0009 11.6177C18.421 11.6177 20.3825 13.5799 20.3825 16C20.3825 18.4201 18.421 20.3814 16.0009 20.3814C13.5808 20.3814 11.6187 18.4201 11.6187 16ZM18.8454 16C18.8454 14.4289 17.5718 13.1555 16.0009 13.1555C14.4299 13.1555 13.1565 14.4289 13.1565 16C13.1565 17.5708 14.4299 18.8444 16.0009 18.8444C17.5718 18.8444 18.8454 17.5708 18.8454 16Z" fill="white"/>
</svg>
