<svg width="137" height="48" viewBox="0 0 137 48" fill="none" xmlns="http://www.w3.org/2000/svg">
<g clip-path="url(#clip0_402_737)">
<rect width="115.714" height="48" transform="translate(20.5715)" fill="#F9DC38"/>
<path d="M49.7059 15.4286C44.9745 15.4286 41.1431 19.2686 41.1431 24C41.1431 28.7314 44.9745 32.5714 49.7059 32.5714C54.4459 32.5714 58.2859 28.7314 58.2859 24C58.2859 19.2686 54.4459 15.4286 49.7059 15.4286ZM53.3402 29.1429L49.7145 26.9572L46.0888 29.1429L47.0488 25.02L43.8516 22.2514L48.0688 21.8914L49.7145 18L51.3602 21.8829L55.5774 22.2429L52.3802 25.0114L53.3402 29.1429Z" fill="black"/>
<path d="M72.3902 28.1429L70.7342 25.7772C71.7113 25.3966 72.2667 24.5943 72.2667 23.504C72.2667 21.9097 71.0942 20.9429 69.2016 20.9429H66.2393V28.1429H67.5764V26.0446H69.2016C69.2942 26.0446 69.3867 26.0446 69.4793 26.0343L70.9502 28.1429H72.3902ZM70.9193 23.504C70.9193 24.4092 70.3124 24.944 69.1399 24.944H67.5764V22.0743H69.1399C70.3124 22.0743 70.9193 22.5989 70.9193 23.504ZM78.3913 25.4275C78.3913 23.7097 77.2187 22.5886 75.6142 22.5886C73.9787 22.5886 72.7753 23.7612 72.7753 25.3966C72.7753 27.032 73.9685 28.2149 75.8096 28.2149C76.7559 28.2149 77.5273 27.9063 78.021 27.32L77.3319 26.528C76.941 26.9292 76.4576 27.1246 75.8405 27.1246C74.8839 27.1246 74.2153 26.6103 74.061 25.808H78.3707C78.381 25.6846 78.3913 25.5303 78.3913 25.4275ZM75.6142 23.6172C76.4576 23.6172 77.0645 24.1623 77.1673 24.9543H74.0507C74.1742 24.152 74.781 23.6172 75.6142 23.6172ZM86.5407 22.6503L85.0493 26.7235L83.5682 22.6503H82.4882L80.9762 26.7029L79.5259 22.6503H78.3122L80.3282 28.1429H81.5624L83.0024 24.3577L84.4219 28.1429H85.6562L87.6824 22.6503H86.5407ZM90.0825 22.5886C89.198 22.5886 88.3443 22.8149 87.758 23.2675L88.262 24.2035C88.6734 23.864 89.3111 23.6583 89.9283 23.6583C90.8437 23.6583 91.2963 24.1006 91.2963 24.8515V24.9337H89.8768C88.2105 24.9337 87.5934 25.6537 87.5934 26.5692C87.5934 27.5257 88.3854 28.2149 89.6403 28.2149C90.4631 28.2149 91.0597 27.9475 91.3683 27.4743V28.1429H92.582V24.9235C92.582 23.3395 91.6665 22.5886 90.0825 22.5886ZM89.9077 27.2789C89.2494 27.2789 88.8585 26.9806 88.8585 26.5177C88.8585 26.1166 89.0951 25.7875 89.9694 25.7875H91.2963V26.4252C91.0803 26.9909 90.5351 27.2789 89.9077 27.2789ZM95.0446 23.4526V22.6503H93.8206V28.1429H95.1063V25.4789C95.1063 24.3577 95.7235 23.7817 96.7006 23.7817C96.7932 23.7817 96.8857 23.792 96.9989 23.8126V22.5886C96.0835 22.5886 95.4149 22.8766 95.0446 23.4526ZM101.722 20.5109V23.3292C101.29 22.8252 100.662 22.5886 99.9525 22.5886C98.3582 22.5886 97.1754 23.6892 97.1754 25.3966C97.1754 27.104 98.3582 28.2149 99.9525 28.2149C100.703 28.2149 101.341 27.9577 101.773 27.4332V28.1429H103.007V20.5109H101.722ZM100.107 27.1143C99.1811 27.1143 98.4714 26.4457 98.4714 25.3966C98.4714 24.3475 99.1811 23.6789 100.107 23.6789C101.032 23.6789 101.742 24.3475 101.742 25.3966C101.742 26.4457 101.032 27.1143 100.107 27.1143ZM105.975 28.2149C107.518 28.2149 108.464 27.5463 108.464 26.5177C108.464 24.368 105.07 25.3555 105.07 24.2446C105.07 23.8846 105.44 23.6275 106.222 23.6275C106.746 23.6275 107.271 23.7303 107.796 24.0389L108.289 23.0617C107.796 22.7635 106.962 22.5886 106.232 22.5886C104.751 22.5886 103.815 23.2675 103.815 24.3063C103.815 26.4972 107.209 25.5097 107.209 26.5589C107.209 26.9395 106.87 27.1657 106.057 27.1657C105.368 27.1657 104.628 26.9395 104.144 26.6206L103.65 27.5977C104.144 27.9475 105.06 28.2149 105.975 28.2149Z" fill="#111112"/>
<path d="M27.4286 2.6226e-05C27.4286 1.81865 26.7062 3.56279 25.4202 4.84876C24.1343 6.13472 22.3901 6.85717 20.5715 6.85717L20.5715 2.6226e-05H27.4286Z" fill="white"/>
<path d="M20.5715 41.1429C21.472 41.1429 22.3637 41.3202 23.1956 41.6649C24.0276 42.0095 24.7835 42.5145 25.4202 43.1513C26.057 43.788 26.5621 44.544 26.9067 45.3759C27.2513 46.2079 27.4286 47.0995 27.4286 48L20.5715 48V41.1429Z" fill="white"/>
<line x1="20.5715" x2="20.5715" y2="48" stroke="white" stroke-width="1.71429" stroke-dasharray="6.86 6.86"/>
</g>
<g clip-path="url(#clip1_402_737)">
<rect width="20.5714" height="48" fill="#F9DC38"/>
<path d="M20.5715 6.85717C18.7529 6.85717 17.0087 6.13472 15.7228 4.84876C14.4368 3.5628 13.7144 1.81865 13.7144 2.71797e-05L20.5715 2.6226e-05L20.5715 6.85717Z" fill="white"/>
<path d="M13.7144 48C13.7144 46.1814 14.4368 44.4373 15.7228 43.1513C17.0087 41.8653 18.7529 41.1429 20.5715 41.1429V48L13.7144 48Z" fill="white"/>
<line x1="20.5715" x2="20.5715" y2="48" stroke="white" stroke-width="1.71429" stroke-dasharray="6.86 6.86"/>
</g>
<defs>
<clipPath id="clip0_402_737">
<rect width="115.714" height="48" fill="white" transform="translate(20.5715)"/>
</clipPath>
<clipPath id="clip1_402_737">
<rect width="20.5714" height="48" fill="white"/>
</clipPath>
</defs>
</svg>
