<svg width="32" height="32" viewBox="0 0 32 32" fill="none" xmlns="http://www.w3.org/2000/svg">
<rect width="32" height="32" fill="#111112"/>
<path d="M16.3277 13.3232L16.3613 13.8769L15.8017 13.8091C13.7648 13.5492 11.9853 12.6679 10.4744 11.1878L9.73579 10.4533L9.54554 10.9957C9.14264 12.2046 9.40004 13.4814 10.2394 14.3401C10.6871 14.8146 10.5864 14.8824 9.81414 14.6C9.54554 14.5096 9.31051 14.4418 9.28813 14.4757C9.20979 14.5548 9.47839 15.583 9.69103 15.9897C9.98201 16.5546 10.5752 17.1083 11.2243 17.4359L11.7727 17.6958L11.1236 17.7071C10.4968 17.7071 10.4744 17.7184 10.5416 17.9557C10.7654 18.6901 11.6496 19.4697 12.6344 19.8087L13.3283 20.0459L12.724 20.4075C11.8286 20.9272 10.7766 21.221 9.7246 21.2436C9.22098 21.2549 8.80688 21.3001 8.80688 21.334C8.80688 21.447 10.1723 22.0797 10.9669 22.3283C13.3507 23.0627 16.1822 22.7463 18.3086 21.4922C19.8195 20.5996 21.3304 18.8257 22.0354 17.1083C22.416 16.1931 22.7965 14.5209 22.7965 13.7187C22.7965 13.1989 22.83 13.1311 23.4568 12.5097C23.8261 12.1481 24.173 11.7527 24.2402 11.6397C24.3521 11.425 24.3409 11.425 23.7702 11.6171C22.8189 11.9561 22.6846 11.9109 23.1546 11.4024C23.5015 11.0409 23.9156 10.3856 23.9156 10.1935C23.9156 10.1596 23.7478 10.2161 23.5575 10.3178C23.3561 10.4307 22.9084 10.6002 22.5726 10.7019L21.9683 10.894L21.4199 10.5211C21.1177 10.3178 20.6924 10.0918 20.4686 10.024C19.8978 9.86581 19.0249 9.88841 18.5101 10.0692C17.1111 10.5776 16.227 11.8883 16.3277 13.3232Z" fill="white"/>
</svg>
