<svg width="16" height="16" viewBox="0 0 16 16" fill="none" xmlns="http://www.w3.org/2000/svg">
<path d="M11.6656 9.58737C11.467 9.48815 10.4879 9.00804 10.3055 8.94243C10.123 8.87601 9.99035 8.84321 9.85771 9.04165C9.72508 9.2393 9.34324 9.68659 9.22668 9.81862C9.11093 9.95065 8.99437 9.96666 8.79582 9.86744C8.20904 9.6349 7.66745 9.30239 7.19533 8.88482C6.7599 8.48417 6.3866 8.02143 6.08762 7.51171C5.97186 7.31326 6.07556 7.20604 6.17524 7.10762C6.26447 7.0188 6.3746 6.87637 6.47347 6.76034C6.55536 6.66017 6.62249 6.5489 6.67283 6.42987C6.69931 6.37517 6.71165 6.31474 6.7087 6.25409C6.70575 6.19344 6.68761 6.13449 6.65595 6.08259C6.60611 5.98337 6.2082 5.00795 6.0426 4.61106C5.88103 4.22537 5.71704 4.27738 5.59405 4.27098C5.47829 4.26538 5.34566 4.26378 5.21302 4.26378C5.11212 4.26658 5.0129 4.29014 4.9216 4.33296C4.83029 4.37579 4.74887 4.43697 4.68247 4.51264C4.45741 4.72479 4.27921 4.98129 4.15922 5.26577C4.03922 5.55026 3.98007 5.85651 3.98553 6.16501C4.05008 6.91256 4.33254 7.62508 4.79823 8.21507C5.65186 9.48899 6.82365 10.52 8.19855 11.2069C8.56942 11.3655 8.94827 11.505 9.3336 11.6246C9.73982 11.7474 10.1692 11.774 10.5876 11.7022C10.8647 11.6464 11.1271 11.5339 11.3583 11.3719C11.5895 11.21 11.7845 11.002 11.9309 10.7612C12.0614 10.4651 12.1017 10.1373 12.0466 9.81862C11.9976 9.73541 11.8649 9.6866 11.6656 9.58737ZM13.6688 2.32255C12.3022 0.962524 10.4857 0.143187 8.55739 0.0170746C6.62911 -0.109037 4.7205 0.46667 3.18688 1.63701C1.65327 2.80736 0.599162 4.49259 0.220815 6.37895C-0.157533 8.26531 0.165661 10.2243 1.13022 11.8911L0 16L4.22347 14.8982C5.3916 15.5313 6.70047 15.8631 8.03054 15.8632H8.03376C9.6094 15.8624 11.1494 15.3967 12.4593 14.525C13.7692 13.6534 14.7902 12.4148 15.3932 10.9657C15.9962 9.51673 16.1542 7.92231 15.8473 6.38392C15.5404 4.84554 14.7823 3.43222 13.6688 2.32254V2.32255ZM11.5522 13.5162C10.4977 14.1742 9.27835 14.5233 8.03376 14.5237H8.03054C6.84477 14.5236 5.68085 14.206 4.66077 13.6043L4.41881 13.4618L1.91238 14.1164L2.58119 11.6838L2.42444 11.4342C1.72873 10.3298 1.37764 9.04488 1.41554 7.74188C1.45345 6.43888 1.87866 5.17633 2.6374 4.11388C3.39613 3.05144 4.45433 2.2368 5.67817 1.773C6.90201 1.30919 8.23654 1.21704 9.51299 1.5082C10.7894 1.79936 11.9505 2.46075 12.8493 3.40875C13.7482 4.35674 14.3444 5.54876 14.5627 6.83407C14.781 8.11937 14.6115 9.44025 14.0756 10.6297C13.5398 11.8191 12.6616 12.8236 11.5522 13.5162Z" fill="white"/>
</svg>
