<svg width="135" height="56" viewBox="0 0 135 56" fill="none" xmlns="http://www.w3.org/2000/svg">
<g clip-path="url(#clip0_139_2036)">
<rect width="135" height="56" fill="#F9DC38"/>
<path d="M33.99 18C28.47 18 24 22.48 24 28C24 33.52 28.47 38 33.99 38C39.52 38 44 33.52 44 28C44 22.48 39.52 18 33.99 18ZM38.23 34L34 31.45L29.77 34L30.89 29.19L27.16 25.96L32.08 25.54L34 21L35.92 25.53L40.84 25.95L37.11 29.18L38.23 34Z" fill="black"/>
<path d="M58.7749 32L57.0589 29.54C56.9869 29.548 56.8789 29.552 56.7349 29.552H54.8389V32H53.2789V23.6H56.7349C57.4629 23.6 58.0949 23.72 58.6309 23.96C59.1749 24.2 59.5909 24.544 59.8789 24.992C60.1669 25.44 60.3109 25.972 60.3109 26.588C60.3109 27.22 60.1549 27.764 59.8429 28.22C59.5389 28.676 59.0989 29.016 58.5229 29.24L60.4549 32H58.7749ZM58.7389 26.588C58.7389 26.052 58.5629 25.64 58.2109 25.352C57.8589 25.064 57.3429 24.92 56.6629 24.92H54.8389V28.268H56.6629C57.3429 28.268 57.8589 28.124 58.2109 27.836C58.5629 27.54 58.7389 27.124 58.7389 26.588ZM67.4563 28.832C67.4563 28.936 67.4483 29.084 67.4323 29.276H62.4043C62.4923 29.748 62.7203 30.124 63.0883 30.404C63.4643 30.676 63.9283 30.812 64.4803 30.812C65.1843 30.812 65.7643 30.58 66.2203 30.116L67.0243 31.04C66.7363 31.384 66.3723 31.644 65.9323 31.82C65.4923 31.996 64.9963 32.084 64.4443 32.084C63.7403 32.084 63.1203 31.944 62.5843 31.664C62.0483 31.384 61.6323 30.996 61.3363 30.5C61.0483 29.996 60.9043 29.428 60.9043 28.796C60.9043 28.172 61.0443 27.612 61.3243 27.116C61.6123 26.612 62.0083 26.22 62.5123 25.94C63.0163 25.66 63.5843 25.52 64.2163 25.52C64.8403 25.52 65.3963 25.66 65.8843 25.94C66.3803 26.212 66.7643 26.6 67.0363 27.104C67.3163 27.6 67.4563 28.176 67.4563 28.832ZM64.2163 26.72C63.7363 26.72 63.3283 26.864 62.9923 27.152C62.6643 27.432 62.4643 27.808 62.3923 28.28H66.0283C65.9643 27.816 65.7683 27.44 65.4403 27.152C65.1123 26.864 64.7043 26.72 64.2163 26.72ZM78.2959 25.592L75.9319 32H74.4919L72.8359 27.584L71.1559 32H69.7159L67.3639 25.592H68.7799L70.4719 30.32L72.2359 25.592H73.4959L75.2239 30.344L76.9639 25.592H78.2959ZM81.0961 25.52C82.0401 25.52 82.7601 25.748 83.2561 26.204C83.7601 26.652 84.0121 27.332 84.0121 28.244V32H82.5961V31.22C82.4121 31.5 82.1481 31.716 81.8041 31.868C81.4681 32.012 81.0601 32.084 80.5801 32.084C80.1001 32.084 79.6801 32.004 79.3201 31.844C78.9601 31.676 78.6801 31.448 78.4801 31.16C78.2881 30.864 78.1921 30.532 78.1921 30.164C78.1921 29.588 78.4041 29.128 78.8281 28.784C79.2601 28.432 79.9361 28.256 80.8561 28.256H82.5121V28.16C82.5121 27.712 82.3761 27.368 82.1041 27.128C81.8401 26.888 81.4441 26.768 80.9161 26.768C80.5561 26.768 80.2001 26.824 79.8481 26.936C79.5041 27.048 79.2121 27.204 78.9721 27.404L78.3841 26.312C78.7201 26.056 79.1241 25.86 79.5961 25.724C80.0681 25.588 80.5681 25.52 81.0961 25.52ZM80.8921 30.992C81.2681 30.992 81.6001 30.908 81.8881 30.74C82.1841 30.564 82.3921 30.316 82.5121 29.996V29.252H80.9641C80.1001 29.252 79.6681 29.536 79.6681 30.104C79.6681 30.376 79.7761 30.592 79.9921 30.752C80.2081 30.912 80.5081 30.992 80.8921 30.992ZM86.8851 26.528C87.3171 25.856 88.0771 25.52 89.1651 25.52V26.948C89.0371 26.924 88.9211 26.912 88.8171 26.912C88.2331 26.912 87.7771 27.084 87.4491 27.428C87.1211 27.764 86.9571 28.252 86.9571 28.892V32H85.4571V25.592H86.8851V26.528ZM96.175 23.096V32H94.735V31.172C94.487 31.476 94.179 31.704 93.811 31.856C93.451 32.008 93.051 32.084 92.611 32.084C91.995 32.084 91.439 31.948 90.943 31.676C90.455 31.404 90.071 31.02 89.791 30.524C89.511 30.02 89.371 29.444 89.371 28.796C89.371 28.148 89.511 27.576 89.791 27.08C90.071 26.584 90.455 26.2 90.943 25.928C91.439 25.656 91.995 25.52 92.611 25.52C93.035 25.52 93.423 25.592 93.775 25.736C94.127 25.88 94.427 26.096 94.675 26.384V23.096H96.175ZM92.791 30.8C93.151 30.8 93.475 30.72 93.763 30.56C94.051 30.392 94.279 30.156 94.447 29.852C94.615 29.548 94.699 29.196 94.699 28.796C94.699 28.396 94.615 28.044 94.447 27.74C94.279 27.436 94.051 27.204 93.763 27.044C93.475 26.876 93.151 26.792 92.791 26.792C92.431 26.792 92.107 26.876 91.819 27.044C91.531 27.204 91.303 27.436 91.135 27.74C90.967 28.044 90.883 28.396 90.883 28.796C90.883 29.196 90.967 29.548 91.135 29.852C91.303 30.156 91.531 30.392 91.819 30.56C92.107 30.72 92.431 30.8 92.791 30.8ZM99.6373 32.084C99.1173 32.084 98.6093 32.016 98.1133 31.88C97.6173 31.744 97.2213 31.572 96.9253 31.364L97.5013 30.224C97.7893 30.416 98.1333 30.572 98.5333 30.692C98.9413 30.804 99.3413 30.86 99.7333 30.86C100.629 30.86 101.077 30.624 101.077 30.152C101.077 29.928 100.961 29.772 100.729 29.684C100.505 29.596 100.141 29.512 99.6373 29.432C99.1093 29.352 98.6773 29.26 98.3413 29.156C98.0133 29.052 97.7253 28.872 97.4773 28.616C97.2373 28.352 97.1173 27.988 97.1173 27.524C97.1173 26.916 97.3693 26.432 97.8733 26.072C98.3853 25.704 99.0733 25.52 99.9373 25.52C100.377 25.52 100.817 25.572 101.257 25.676C101.697 25.772 102.057 25.904 102.337 26.072L101.761 27.212C101.217 26.892 100.605 26.732 99.9253 26.732C99.4853 26.732 99.1493 26.8 98.9173 26.936C98.6933 27.064 98.5813 27.236 98.5813 27.452C98.5813 27.692 98.7013 27.864 98.9413 27.968C99.1893 28.064 99.5693 28.156 100.081 28.244C100.593 28.324 101.013 28.416 101.341 28.52C101.669 28.624 101.949 28.8 102.181 29.048C102.421 29.296 102.541 29.648 102.541 30.104C102.541 30.704 102.281 31.184 101.761 31.544C101.241 31.904 100.533 32.084 99.6373 32.084Z" fill="#111112"/>
<path d="M8 0C8 2.12173 7.15715 4.15656 5.65686 5.65685C4.15656 7.15714 2.12173 8 2.86102e-06 8L0 0H8Z" fill="white"/>
<path d="M0 48C1.05058 48 2.09086 48.2069 3.06147 48.609C4.03207 49.011 4.91399 49.6003 5.65685 50.3431C6.39972 51.086 6.989 51.9679 7.39104 52.9385C7.79307 53.9091 8 54.9494 8 56L0 56V48Z" fill="white"/>
<line y2="56" stroke="white" stroke-width="2" stroke-dasharray="8 8"/>
</g>
<defs>
<clipPath id="clip0_139_2036">
<rect width="135" height="56" fill="white"/>
</clipPath>
</defs>
</svg>
